<?xml version="1.0" encoding="UTF-8"?>
<svg width="232px" height="213px" viewBox="0 0 232 213" version="1.1" xmlns="http://www.w3.org/2000/svg" xmlns:xlink="http://www.w3.org/1999/xlink">
    <!-- Generator: Sketch 48.2 (47327) - http://www.bohemiancoding.com/sketch -->
    <title>Group Copy 2</title>
    <desc>Created with Sketch.</desc>
    <defs></defs>
    <g id="Cracco" stroke="none" stroke-width="1" fill="none" fill-rule="evenodd" transform="translate(-524.000000, -254.000000)">
        <g id="Group-Copy-2" transform="translate(524.000000, 254.000000)" fill="#A2855B">
            <path d="M15.6812447,0.026775 C4.33317342,0.026775 0,8.6409 0,17.459775 L0,195.19215 C0,204.011025 4.33317342,212.6244 15.6812447,212.6244 C27.0296921,212.6244 30.537141,204.011025 30.537141,195.19215 L30.537141,171.7149 L30.537141,158.40465 L23.0917083,158.40465 L24.5532707,171.893025 L24.5532707,197.8674 C24.5532707,207.917025 21.0458217,210.993525 15.6812447,210.993525 C10.3170438,210.993525 6.60278768,207.917025 6.60278768,197.8674 L6.60278768,14.7744 C6.60278768,4.724775 10.3170438,1.648275 15.6812447,1.648275 C21.0458217,1.648275 24.5532707,4.724775 24.5532707,14.7744 L24.5547747,41.569275 L23.0917083,55.057275 L30.537141,55.057275 L30.537141,41.569275 L30.537141,17.459775 C30.537141,8.6409 27.0296921,0.026775 15.6812447,0.026775" id="Fill-1"></path>
            <path d="M178.354945,0.026775 C167.006873,0.026775 162.6737,8.6409 162.6737,17.459775 L162.6737,195.19215 C162.6737,204.011025 167.006873,212.6244 178.354945,212.6244 C189.703392,212.6244 193.210841,204.011025 193.210841,195.19215 L193.210841,171.7149 L193.210841,158.40465 L185.765408,158.40465 L187.226971,171.893025 L187.226971,197.8674 C187.226971,207.917025 183.719522,210.993525 178.354945,210.993525 C172.990744,210.993525 169.276112,207.917025 169.276112,197.8674 L169.276112,14.7744 C169.276112,4.724775 172.990744,1.648275 178.354945,1.648275 C183.719522,1.648275 187.226971,4.724775 187.226971,14.7744 L187.228851,41.569275 L185.765408,55.057275 L193.210841,55.057275 L193.210841,41.569275 L193.210841,17.459775 C193.210841,8.6409 189.703392,0.026775 178.354945,0.026775" id="Fill-3"></path>
            <path d="M138.230263,0.026775 C126.882191,0.026775 122.549018,8.6409 122.549018,17.459775 L122.549018,195.19215 C122.549018,204.011025 126.882191,212.6244 138.230263,212.6244 C149.57871,212.6244 153.086159,204.011025 153.086159,195.19215 L153.086159,171.7149 L153.086159,158.40465 L145.640726,158.40465 L147.102288,171.893025 L147.102288,197.8674 C147.102288,207.917025 143.59484,210.993525 138.230263,210.993525 C132.866062,210.993525 129.151429,207.917025 129.151429,197.8674 L129.151429,14.7744 C129.151429,4.724775 132.866062,1.648275 138.230263,1.648275 C143.59484,1.648275 147.102288,4.724775 147.102288,14.7744 L147.104169,41.569275 L145.640726,55.057275 L153.086159,55.057275 L153.086159,41.569275 L153.086159,17.459775 C153.086159,8.6409 149.57871,0.026775 138.230263,0.026775" id="Fill-5"></path>
            <path d="M225.974204,197.8671 C225.974204,207.9171 222.466379,210.9936 217.101426,210.9936 C211.737225,210.9936 208.023345,207.9171 208.023345,197.8671 L208.023345,14.77335 C208.023345,4.7241 211.737225,1.64835 217.101426,1.64835 C222.466379,1.64835 225.974204,4.7241 225.974204,14.77335 L225.974204,197.8671 Z M217.101426,0.026475 C205.753731,0.026475 201.420934,8.6406 201.420934,17.4591 L201.420934,195.191475 C201.420934,204.011475 205.753731,212.62485 217.101426,212.62485 C228.449874,212.62485 231.957699,204.011475 231.957699,195.191475 L231.957699,17.4591 C231.957699,8.6406 228.449874,0.026475 217.101426,0.026475 Z" id="Fill-7"></path>
            <path d="M45.9304726,2.4589875 L55.7395229,2.4589875 C61.1040998,2.4589875 64.6123008,5.5351125 64.6123008,15.5847375 L64.6123008,94.7352375 C64.6123008,99.9012375 63.6835488,103.225987 62.0531566,105.236362 C61.5940447,105.802237 61.078531,106.266862 60.5111274,106.635862 C59.1804175,107.504737 57.5680739,107.860987 55.7395229,107.860987 L45.9304726,107.860987 L45.9304726,2.4589875 Z M61.3970139,108.610987 C61.7004564,108.504862 61.9975066,108.391987 62.2825245,108.268987 C68.4931306,105.590362 70.5957951,98.8864875 70.5957951,92.0618625 L70.5957951,18.2704875 C70.5957951,9.4516125 67.0883462,0.8374875 55.7395229,0.8374875 L39.3280609,0.8374875 L39.3280609,198.211987 L39.3273089,211.804237 L45.9304726,211.804237 L45.9304726,109.494862 L54.8498762,109.494862 L65.3556784,211.804237 L74.2149199,211.804237 L70.6070755,198.211987 L61.3970139,108.610987 Z" id="Fill-10"></path>
            <path d="M88.0288467,129.3465 L95.141884,31.42275 L101.822506,129.3465 L88.0288467,129.3465 Z M115.529307,211.8045 L113.138241,198.2115 L99.6732162,0.838125 L93.055012,0.838125 L94.3469925,19.774875 L81.3850736,198.2115 L78.2036279,211.8045 L85.6953102,211.8045 L83.0267462,198.2115 L87.9104026,130.979625 L101.933806,130.979625 L106.520788,198.2115 L105.987602,211.8045 L115.529307,211.8045 Z" id="Fill-12"></path>
        </g>
    </g>
</svg>